<mxfile host="app.diagrams.net" modified="2022-10-05T06:39:17.163Z" agent="5.0 (Macintosh; Intel Mac OS X 10_15_7) AppleWebKit/605.1.15 (KHTML, like Gecko) Version/16.0 Safari/605.1.15" etag="zMZS19M2VMX8Xlbc3jrN" version="20.4.0" type="github">
  <diagram id="_XcqQiy2nQXfhEswsfYa" name="Page-1">
    <mxGraphModel dx="1298" dy="865" grid="1" gridSize="10" guides="1" tooltips="1" connect="1" arrows="1" fold="1" page="1" pageScale="1" pageWidth="827" pageHeight="1169" math="0" shadow="0">
      <root>
        <mxCell id="0" />
        <mxCell id="1" parent="0" />
        <mxCell id="aMXHbMqie1wpvL0dGQjH-5" value="Git structure" style="text;html=1;align=center;verticalAlign=middle;resizable=0;points=[];autosize=1;strokeColor=none;fillColor=none;fontSize=24;" parent="1" vertex="1">
          <mxGeometry x="330" y="102" width="150" height="40" as="geometry" />
        </mxCell>
        <mxCell id="aMXHbMqie1wpvL0dGQjH-13" value="&lt;font style=&quot;font-size: 20px;&quot;&gt;apps&lt;/font&gt;" style="text;html=1;align=center;verticalAlign=middle;resizable=0;points=[];autosize=1;strokeColor=none;fillColor=none;fontSize=24;" parent="1" vertex="1">
          <mxGeometry x="429" y="200" width="70" height="40" as="geometry" />
        </mxCell>
        <mxCell id="aMXHbMqie1wpvL0dGQjH-14" value="admin" style="text;html=1;align=center;verticalAlign=middle;resizable=0;points=[];autosize=1;strokeColor=none;fillColor=none;fontSize=20;" parent="1" vertex="1">
          <mxGeometry x="499" y="238" width="80" height="40" as="geometry" />
        </mxCell>
        <mxCell id="aMXHbMqie1wpvL0dGQjH-15" value="altexsoft-pr" style="text;html=1;align=center;verticalAlign=middle;resizable=0;points=[];autosize=1;strokeColor=none;fillColor=none;fontSize=20;" parent="1" vertex="1">
          <mxGeometry x="499" y="402" width="120" height="40" as="geometry" />
        </mxCell>
        <mxCell id="aMXHbMqie1wpvL0dGQjH-16" value="Dockerfile" style="text;html=1;align=center;verticalAlign=middle;resizable=0;points=[];autosize=1;strokeColor=none;fillColor=none;fontSize=20;" parent="1" vertex="1">
          <mxGeometry x="560" y="270" width="110" height="40" as="geometry" />
        </mxCell>
        <mxCell id="aMXHbMqie1wpvL0dGQjH-17" value="package.json" style="text;html=1;align=center;verticalAlign=middle;resizable=0;points=[];autosize=1;strokeColor=none;fillColor=none;fontSize=20;" parent="1" vertex="1">
          <mxGeometry x="560" y="300" width="140" height="40" as="geometry" />
        </mxCell>
        <mxCell id="aMXHbMqie1wpvL0dGQjH-18" value="Dockerfile" style="text;html=1;align=center;verticalAlign=middle;resizable=0;points=[];autosize=1;strokeColor=none;fillColor=none;fontSize=20;" parent="1" vertex="1">
          <mxGeometry x="560" y="434" width="110" height="40" as="geometry" />
        </mxCell>
        <mxCell id="aMXHbMqie1wpvL0dGQjH-19" value="package.json" style="text;html=1;align=center;verticalAlign=middle;resizable=0;points=[];autosize=1;strokeColor=none;fillColor=none;fontSize=20;" parent="1" vertex="1">
          <mxGeometry x="565" y="470" width="140" height="40" as="geometry" />
        </mxCell>
        <mxCell id="aMXHbMqie1wpvL0dGQjH-20" value="docker-compose.yml" style="text;html=1;align=center;verticalAlign=middle;resizable=0;points=[];autosize=1;strokeColor=none;fillColor=none;fontSize=20;" parent="1" vertex="1">
          <mxGeometry x="429" y="580" width="210" height="40" as="geometry" />
        </mxCell>
        <mxCell id="aMXHbMqie1wpvL0dGQjH-22" value="" style="line;strokeWidth=2;direction=south;html=1;fontSize=20;" parent="1" vertex="1">
          <mxGeometry x="389" y="206" width="10" height="474" as="geometry" />
        </mxCell>
        <mxCell id="aMXHbMqie1wpvL0dGQjH-23" value="." style="text;html=1;align=center;verticalAlign=middle;resizable=0;points=[];autosize=1;strokeColor=none;fillColor=none;fontSize=63;" parent="1" vertex="1">
          <mxGeometry x="374" y="141" width="40" height="90" as="geometry" />
        </mxCell>
        <mxCell id="aMXHbMqie1wpvL0dGQjH-24" value="" style="line;strokeWidth=1;fillColor=none;align=left;verticalAlign=middle;spacingTop=-1;spacingLeft=3;spacingRight=3;rotatable=0;labelPosition=right;points=[];portConstraint=eastwest;fontSize=63;" parent="1" vertex="1">
          <mxGeometry x="399" y="219" width="30" height="8" as="geometry" />
        </mxCell>
        <mxCell id="aMXHbMqie1wpvL0dGQjH-26" value="" style="line;strokeWidth=2;direction=south;html=1;fontSize=63;" parent="1" vertex="1">
          <mxGeometry x="459" y="235" width="10" height="219" as="geometry" />
        </mxCell>
        <mxCell id="aMXHbMqie1wpvL0dGQjH-28" value="" style="line;strokeWidth=1;fillColor=none;align=left;verticalAlign=middle;spacingTop=-1;spacingLeft=3;spacingRight=3;rotatable=0;labelPosition=right;points=[];portConstraint=eastwest;fontSize=63;" parent="1" vertex="1">
          <mxGeometry x="469" y="418" width="30" height="8" as="geometry" />
        </mxCell>
        <mxCell id="aMXHbMqie1wpvL0dGQjH-29" value="" style="line;strokeWidth=1;fillColor=none;align=left;verticalAlign=middle;spacingTop=-1;spacingLeft=3;spacingRight=3;rotatable=0;labelPosition=right;points=[];portConstraint=eastwest;fontSize=63;" parent="1" vertex="1">
          <mxGeometry x="530" y="383" width="30" height="8" as="geometry" />
        </mxCell>
        <mxCell id="aMXHbMqie1wpvL0dGQjH-31" value="" style="line;strokeWidth=1;fillColor=none;align=left;verticalAlign=middle;spacingTop=-1;spacingLeft=3;spacingRight=3;rotatable=0;labelPosition=right;points=[];portConstraint=eastwest;fontSize=63;" parent="1" vertex="1">
          <mxGeometry x="530" y="348" width="30" height="8" as="geometry" />
        </mxCell>
        <mxCell id="aMXHbMqie1wpvL0dGQjH-32" value="" style="line;strokeWidth=1;fillColor=none;align=left;verticalAlign=middle;spacingTop=-1;spacingLeft=3;spacingRight=3;rotatable=0;labelPosition=right;points=[];portConstraint=eastwest;fontSize=63;" parent="1" vertex="1">
          <mxGeometry x="530" y="316" width="30" height="8" as="geometry" />
        </mxCell>
        <mxCell id="aMXHbMqie1wpvL0dGQjH-33" value="" style="line;strokeWidth=1;fillColor=none;align=left;verticalAlign=middle;spacingTop=-1;spacingLeft=3;spacingRight=3;rotatable=0;labelPosition=right;points=[];portConstraint=eastwest;fontSize=63;" parent="1" vertex="1">
          <mxGeometry x="530" y="284" width="30" height="8" as="geometry" />
        </mxCell>
        <mxCell id="aMXHbMqie1wpvL0dGQjH-34" value="" style="line;strokeWidth=2;direction=south;html=1;fontSize=63;" parent="1" vertex="1">
          <mxGeometry x="520" y="270" width="10" height="120" as="geometry" />
        </mxCell>
        <mxCell id="aMXHbMqie1wpvL0dGQjH-35" value="&lt;font style=&quot;font-size: 20px;&quot;&gt;source code&lt;/font&gt;" style="text;html=1;align=center;verticalAlign=middle;resizable=0;points=[];autosize=1;strokeColor=none;fillColor=none;fontSize=20;" parent="1" vertex="1">
          <mxGeometry x="565" y="332" width="130" height="40" as="geometry" />
        </mxCell>
        <mxCell id="aMXHbMqie1wpvL0dGQjH-37" value="" style="line;strokeWidth=2;direction=south;html=1;fontSize=63;" parent="1" vertex="1">
          <mxGeometry x="520" y="434" width="10" height="136" as="geometry" />
        </mxCell>
        <mxCell id="aMXHbMqie1wpvL0dGQjH-38" value="" style="line;strokeWidth=1;fillColor=none;align=left;verticalAlign=middle;spacingTop=-1;spacingLeft=3;spacingRight=3;rotatable=0;labelPosition=right;points=[];portConstraint=eastwest;fontSize=63;" parent="1" vertex="1">
          <mxGeometry x="530" y="450" width="30" height="8" as="geometry" />
        </mxCell>
        <mxCell id="aMXHbMqie1wpvL0dGQjH-40" value="" style="line;strokeWidth=1;fillColor=none;align=left;verticalAlign=middle;spacingTop=-1;spacingLeft=3;spacingRight=3;rotatable=0;labelPosition=right;points=[];portConstraint=eastwest;fontSize=63;" parent="1" vertex="1">
          <mxGeometry x="530" y="520" width="30" height="8" as="geometry" />
        </mxCell>
        <mxCell id="aMXHbMqie1wpvL0dGQjH-41" value="" style="line;strokeWidth=1;fillColor=none;align=left;verticalAlign=middle;spacingTop=-1;spacingLeft=3;spacingRight=3;rotatable=0;labelPosition=right;points=[];portConstraint=eastwest;fontSize=63;" parent="1" vertex="1">
          <mxGeometry x="530" y="485" width="30" height="8" as="geometry" />
        </mxCell>
        <mxCell id="aMXHbMqie1wpvL0dGQjH-42" value="&lt;font style=&quot;font-size: 20px;&quot;&gt;&amp;nbsp;source code&lt;/font&gt;" style="text;html=1;align=center;verticalAlign=middle;resizable=0;points=[];autosize=1;strokeColor=none;fillColor=none;fontSize=20;" parent="1" vertex="1">
          <mxGeometry x="565" y="504" width="140" height="40" as="geometry" />
        </mxCell>
        <mxCell id="aMXHbMqie1wpvL0dGQjH-43" value="" style="line;strokeWidth=1;fillColor=none;align=left;verticalAlign=middle;spacingTop=-1;spacingLeft=3;spacingRight=3;rotatable=0;labelPosition=right;points=[];portConstraint=eastwest;fontSize=63;" parent="1" vertex="1">
          <mxGeometry x="399" y="598" width="30" height="8" as="geometry" />
        </mxCell>
        <mxCell id="aMXHbMqie1wpvL0dGQjH-44" value="env" style="text;html=1;align=center;verticalAlign=middle;resizable=0;points=[];autosize=1;strokeColor=none;fillColor=none;fontSize=20;" parent="1" vertex="1">
          <mxGeometry x="570" y="367" width="60" height="40" as="geometry" />
        </mxCell>
        <mxCell id="aMXHbMqie1wpvL0dGQjH-45" value="" style="line;strokeWidth=1;fillColor=none;align=left;verticalAlign=middle;spacingTop=-1;spacingLeft=3;spacingRight=3;rotatable=0;labelPosition=right;points=[];portConstraint=eastwest;fontSize=63;" parent="1" vertex="1">
          <mxGeometry x="469" y="254" width="30" height="8" as="geometry" />
        </mxCell>
        <mxCell id="aMXHbMqie1wpvL0dGQjH-46" value="" style="line;strokeWidth=1;fillColor=none;align=left;verticalAlign=middle;spacingTop=-1;spacingLeft=3;spacingRight=3;rotatable=0;labelPosition=right;points=[];portConstraint=eastwest;fontSize=63;" parent="1" vertex="1">
          <mxGeometry x="530" y="560" width="30" height="8" as="geometry" />
        </mxCell>
        <mxCell id="aMXHbMqie1wpvL0dGQjH-47" value="env" style="text;html=1;align=center;verticalAlign=middle;resizable=0;points=[];autosize=1;strokeColor=none;fillColor=none;fontSize=20;" parent="1" vertex="1">
          <mxGeometry x="579" y="540" width="60" height="40" as="geometry" />
        </mxCell>
      </root>
    </mxGraphModel>
  </diagram>
</mxfile>
